<?xml version="1.0" encoding="UTF-8"?>
<svg version="1.1" xmlns="http://www.w3.org/2000/svg" width="1563" height="1563">
<path d="M0 0 C515.79 0 1031.58 0 1563 0 C1563 515.79 1563 1031.58 1563 1563 C1047.21 1563 531.42 1563 0 1563 C0 1047.21 0 531.42 0 0 Z " fill="#FEFEFF" transform="translate(0,0)"/>
<path d="M0 0 C36.3 0 72.6 0 110 0 C121.06753392 23.8825732 132.12353627 47.76375827 143.04394531 71.71289062 C145.03386504 76.07570423 147.02819748 80.43649243 149.0234375 84.796875 C155.84426168 99.70412226 162.64974834 114.6181404 169.42852783 129.54455566 C176.25405878 144.57264725 183.11696321 159.58356057 189.98388672 174.59277344 C192.99108477 181.16600521 195.9959587 187.74029943 199.00100708 194.31451416 C200.66724276 197.95971967 202.333629 201.60485635 204 205.25 C204.66666739 206.708333 205.33333405 208.16666634 206 209.625 C206.33 210.346875 206.66 211.06875 207 211.8125 C242 288.37499999 242 288.37499999 242.99987793 290.5622406 C243.66694381 292.02144212 244.33401738 293.48064011 245.00109863 294.93983459 C246.66172036 298.57235602 248.32221083 302.20493734 249.98242188 305.83764648 C253.05432347 312.55891917 256.12745011 319.27962285 259.20507812 325.99827576 C273.73640646 357.72147919 273.73640646 357.72147919 280 372 C282.04931856 369.95068144 282.55081443 368.90142021 283.49291992 366.23828125 C283.770728 365.4604982 284.04853607 364.68271515 284.33476257 363.88136292 C284.63034561 363.03363815 284.92592865 362.18591339 285.23046875 361.3125 C285.69746941 359.99057899 285.69746941 359.99057899 286.17390442 358.64195251 C287.18638555 355.76401379 288.18811461 352.88251079 289.1875 350 C289.6992981 348.53024216 289.6992981 348.53024216 290.22143555 347.03079224 C295.17403098 332.77367032 299.65145179 318.54821841 303.26708984 303.88818359 C304.00016588 300.99934631 304.79484568 298.13527147 305.61328125 295.26953125 C309.70943973 280.83980113 313.01397224 266.2805387 316.1875 251.625 C316.39782867 250.65389282 316.60815735 249.68278564 316.82485962 248.68225098 C320.78218618 230.35402906 324.65706489 212.02826296 327.5625 193.5 C327.75779297 192.27925781 327.95308594 191.05851563 328.15429688 189.80078125 C328.77975658 185.86873816 329.3938748 181.93506023 330 178 C330.1132663 177.26473083 330.22653259 176.52946167 330.3432312 175.77191162 C339.33732429 117.1347763 344 60.84351176 344 1 C384.92 1 425.84 1 468 1 C465.94238415 7.17284754 463.81687069 12.93457875 461.11328125 18.80078125 C460.7395488 19.6218486 460.36581635 20.44291595 459.98075867 21.28886414 C459.1791197 23.04900397 458.37550287 24.80824414 457.57006836 26.56665039 C455.4085221 31.28629915 453.26190835 36.01274074 451.11328125 40.73828125 C450.67791046 41.6947757 450.24253967 42.65127014 449.79397583 43.63674927 C445.80835098 52.40064414 441.89505367 61.19557 438 70 C432.2311583 83.02952777 426.38481982 96.02246169 420.5 109 C414.59625735 122.01999714 408.72995182 135.05509401 402.9375 148.125 C397.37095427 160.6837509 391.76646047 173.22471115 386.125 185.75 C385.75077911 186.58094177 385.37655823 187.41188354 384.99099731 188.26800537 C381.94691123 195.02651309 378.90062881 201.78403029 375.85424805 208.54150391 C373.19347351 214.44387437 370.53361518 220.34665657 367.875 226.25 C367.50037628 227.08174744 367.12575256 227.91349487 366.73977661 228.77044678 C361.14853496 241.1876243 355.60505524 253.62532131 350.08734131 266.07531738 C344.2200715 279.30897354 338.26098433 292.49999875 332.28302002 305.68395996 C326.45949381 318.53008559 320.69 331.39863572 314.97647095 344.29403687 C308.65804379 358.553448 302.26413906 372.77832338 295.84936523 386.99462891 C295.29681061 388.22002129 295.29681061 388.22002129 294.73309326 389.47016907 C294.04793703 390.98946992 293.36223145 392.50852322 292.67584229 394.02726746 C292.36668884 394.71283218 292.0575354 395.39839691 291.73901367 396.10473633 C291.47416672 396.69120438 291.20931976 397.27767242 290.93644714 397.88191223 C290.62741959 398.5808812 290.31839203 399.27985016 290 400 C289.49390953 400.99027065 288.98781906 401.98054131 288.46639252 403.00082016 C286.48986224 407.65400162 286.57521978 412.1121414 286.60127258 417.10496521 C286.59462576 418.10733296 286.58797893 419.10970071 286.58113068 420.14244324 C286.56251548 423.49277119 286.56510504 426.84274155 286.56762695 430.19311523 C286.55860892 432.59806319 286.5482816 435.00300654 286.53674316 437.40794373 C286.51486491 442.58127497 286.50207701 447.75454343 286.49761391 452.92791557 C286.49114528 460.40765829 286.46819542 467.88727966 286.44127061 475.36697341 C286.39802853 487.50333953 286.36804707 499.63970054 286.34643555 511.77612305 C286.32541812 523.56293248 286.29813637 535.34970006 286.26245117 547.13647461 C286.26025235 547.86346247 286.25805352 548.59045032 286.25578807 549.33946811 C286.24471822 552.98668738 286.23352545 556.63390625 286.22227156 560.28112495 C286.12912296 590.52072385 286.05995666 620.76031185 286 651 C252.67 651 219.34 651 185 651 C185.05873291 643.77198486 185.11746582 636.54396973 185.17797852 629.09692383 C185.35492477 605.81624351 185.44642978 582.5360326 185.48592833 559.25476097 C185.49216806 555.62223187 185.49915008 551.98970456 185.5065918 548.35717773 C185.50806046 547.6341826 185.50952912 546.91118747 185.51104229 546.16628339 C185.53640286 534.5477285 185.62152296 522.9303731 185.72979213 511.3123285 C185.83999713 499.3394979 185.88352113 487.36768086 185.86853737 475.39434832 C185.86197059 468.6899227 185.88563298 461.98899636 185.98260689 455.2850132 C186.40625124 424.44815781 184.88887545 399.97362197 169.2184124 372.97768211 C165.6118462 366.67160679 162.7553219 359.9913904 159.81394589 353.35708869 C158.20268998 349.74126893 156.54788475 346.14538676 154.8984375 342.546875 C150.7776979 333.52234132 146.67423533 324.48995813 142.57220459 315.45690918 C137.7312454 304.79705783 132.87104276 294.14613599 128 283.5 C122.50672705 271.49391963 117.03168862 259.47973765 111.57275391 247.45800781 C106.73160141 236.7977951 101.8712129 226.14650785 97 215.5 C91.50672705 203.49391963 86.03168862 191.47973765 80.57275391 179.45800781 C75.73160141 168.7977951 70.8712129 158.14650785 66 147.5 C60.81775678 136.17370525 55.64996617 124.84100733 50.5 113.5 C45.36898139 102.2015365 40.22293163 90.91006033 35.0625 79.625 C34.73238922 78.90290344 34.40227844 78.18080688 34.06216431 77.43682861 C30.66841055 70.01324462 27.27203902 62.59087938 23.86738586 55.17228699 C17.34411109 40.95751599 10.83008578 26.73961937 4.5 12.4375 C4.03682373 11.3964209 3.57364746 10.3553418 3.09643555 9.28271484 C2.68304932 8.34250488 2.26966309 7.40229492 1.84375 6.43359375 C1.48474609 5.61947021 1.12574219 4.80534668 0.75585938 3.96655273 C0 2 0 2 0 0 Z " fill="#38B6FF" transform="translate(362,359)"/>
<path d="M0 0 C96.03 0 192.06 0 291 0 C291 47.76274861 291 47.76274861 288.765625 60.98046875 C288.6478067 61.71756073 288.5299884 62.45465271 288.40859985 63.21408081 C288.03290897 65.5404331 287.64329023 67.86406278 287.25 70.1875 C287.04676117 71.40262772 287.04676117 71.40262772 286.8394165 72.64230347 C285.92387899 78.10049079 284.97372685 83.55191472 284 89 C283.80954102 90.07475586 283.61908203 91.14951172 283.42285156 92.25683594 C278.6733347 118.08290365 269.26020358 144.33070103 258 168 C257.49025635 169.07169434 257.49025635 169.07169434 256.97021484 170.16503906 C255.03361614 174.19383119 253.02711503 178.18122433 250.96191406 182.14550781 C250.01959459 183.96222323 249.09849539 185.78849218 248.1796875 187.6171875 C237.67493231 208.23732385 224.0848223 228.85896616 208.16015625 245.69921875 C206.30470048 247.67546369 204.53159554 249.69006538 202.76171875 251.7421875 C193.16067774 262.75300162 182.6386255 273.15912101 171 282 C169.80173004 282.93835111 168.60384002 283.87718751 167.40625 284.81640625 C152.96446318 296.01958939 137.54592877 305.26204425 121 313 C120.28875977 313.33628418 119.57751953 313.67256836 118.84472656 314.01904297 C100.8158668 322.49220907 82.55002627 328.18654666 63 332 C61.74968994 332.24991699 61.74968994 332.24991699 60.47412109 332.50488281 C30.61364224 338.22473658 -1.69716315 336.32570921 -31 329 C-31 319.43 -31 309.86 -31 300 C-26.97138447 301.61144621 -23.3276282 303.3646173 -19.5 305.375 C-12.87099978 308.75251675 -6.23559035 311.19337204 1 313 C1.89332031 313.22558594 2.78664063 313.45117188 3.70703125 313.68359375 C31.16790016 319.3800544 57.91870473 312.03762536 81 297 C84.83979704 294.17689799 88.43666563 291.16158589 92 288 C92.72703125 287.39285156 93.4540625 286.78570313 94.203125 286.16015625 C98.97024625 282.14813245 103.01103456 277.77529127 107 273 C107.76183594 272.11441406 108.52367187 271.22882813 109.30859375 270.31640625 C159.27710756 211.61704447 179.03301416 131.65369572 185.8125 56.4375 C185.97999756 54.58040405 185.97999756 54.58040405 186.15087891 52.68579102 C187.08254019 41.45756378 187.48750939 30.27479332 188 19 C125.96 19 63.92 19 0 19 C0 12.73 0 6.46 0 0 Z " fill="#39B6FF" transform="translate(909,675)"/>
<path d="M0 0 C1.27399658 0.23348145 1.27399658 0.23348145 2.57373047 0.47167969 C39.73218707 7.52200605 74.51309113 25.68171746 104 49 C104.84820313 49.65613281 105.69640625 50.31226563 106.5703125 50.98828125 C124.53976424 65.22974225 140.13043448 81.80195122 154 100 C154.54462891 100.70898438 155.08925781 101.41796875 155.65039062 102.1484375 C157.33574825 104.34421772 159.01305931 106.54588676 160.6875 108.75 C161.21722412 109.4419043 161.74694824 110.13380859 162.29272461 110.84667969 C166 115.76835425 166 115.76835425 166 118 C164.92032959 118.44690186 163.84065918 118.89380371 162.72827148 119.35424805 C139.79569834 128.84805689 116.87751295 138.37419292 94 148 C91.59219265 145.04011434 90.1062504 142.19514839 88.6875 138.66015625 C88.25783936 137.60787842 87.82817871 136.55560059 87.38549805 135.47143555 C86.92828369 134.34648682 86.47106934 133.22153809 86 132.0625 C66.96372244 86.35835528 37.20997092 41.61268086 -10 22 C-12.97716469 20.77927466 -15.875813 19.76663629 -19 19 C-19.80179688 18.79761719 -20.60359375 18.59523438 -21.4296875 18.38671875 C-45.55807418 13.36281954 -71.32118327 17.37168815 -92.36328125 30.1171875 C-94 31 -94 31 -96 31 C-96 21.76 -96 12.52 -96 3 C-65.50672138 -5.71236532 -31.14149869 -5.97792185 0 0 Z " fill="#39B6FF" transform="translate(975,362)"/>
<path d="M0 0 C7.00060966 5.5432843 12.19208708 13.53671318 15 22 C15 23.65 15 25.3 15 27 C7.41 27 -0.18 27 -8 27 C-9.32 24.36 -10.64 21.72 -12 19 C-18.51045233 12.63107924 -25.18768313 9.90952408 -34.1875 9.75 C-42.56411668 9.85146642 -50.98495599 11.83752844 -57 18 C-66.39495411 30.45274578 -67.22354806 43.78151314 -65.71875 58.80859375 C-63.91623607 68.53176987 -59.13752556 76.4017388 -51 82 C-43.39300242 87.12711637 -34.8049377 86.8605023 -26 86 C-19.47228364 84.55540478 -14.11006939 82.48009252 -10 77 C-6.48128666 71.41569384 -5.86808747 67.94469972 -5 61 C-12.92 61 -20.84 61 -29 61 C-29 55.06 -29 49.12 -29 43 C-13.82 43 1.36 43 17 43 C17 63.13 17 83.26 17 104 C10.73 104 4.46 104 -2 104 C-2.33 100.37 -2.66 96.74 -3 93 C-4.258125 94.2375 -5.51625 95.475 -6.8125 96.75 C-16.76985826 105.63768944 -29.16011948 106.60951513 -41.98583984 106.13623047 C-55.6329333 105.21319069 -66.73550029 98.73240374 -76 89 C-89.33469424 73.64175294 -90.20636041 54.34989259 -89 35 C-88.35900222 30.38738789 -86.90463308 26.24299448 -85 22 C-84.66097656 21.14019531 -84.32195313 20.28039063 -83.97265625 19.39453125 C-78.4358662 6.68552918 -68.05789369 -1.8412997 -55.44921875 -7.0546875 C-37.97704191 -13.22133815 -15.21755926 -10.92610223 0 0 Z " fill="#3AB7FF" transform="translate(902,1066)"/>
<path d="M0 0 C6.97085325 5.60754984 10.05580674 12.67238831 11.5546875 21.390625 C11.81979972 25.7364715 11.78795865 30.06933233 11.75 34.421875 C11.7471701 35.65353394 11.74434021 36.88519287 11.74142456 38.1541748 C11.73027952 42.06642602 11.70518499 45.97844362 11.6796875 49.890625 C11.66851716 52.55207998 11.66052583 55.21353277 11.65234375 57.875 C11.6303587 64.38029758 11.59586769 70.88542175 11.5546875 77.390625 C4.9546875 77.390625 -1.6453125 77.390625 -8.4453125 77.390625 C-8.9403125 72.935625 -8.9403125 72.935625 -9.4453125 68.390625 C-10.1259375 69.4734375 -10.1259375 69.4734375 -10.8203125 70.578125 C-15.75178048 75.8618407 -20.78966042 78.34192057 -28.04296875 78.80859375 C-29.71833425 78.85486373 -31.39433018 78.88203853 -33.0703125 78.890625 C-34.26926147 78.89993042 -34.26926147 78.89993042 -35.49243164 78.90942383 C-44.12342521 78.72692216 -50.46780485 76.2030684 -56.74609375 70.2578125 C-61.86598121 64.63182123 -61.99138304 58.89785453 -61.7890625 51.546875 C-61.1315062 45.50931264 -58.79971937 41.43097356 -54.5078125 37.203125 C-42.92743176 28.33202588 -22.75340639 24.390625 -8.4453125 24.390625 C-10.43225229 16.98270798 -10.43225229 16.98270798 -15.4453125 11.390625 C-18.47837363 10.37960462 -20.70471489 10.1923715 -23.8828125 10.140625 C-24.83027344 10.11484375 -25.77773438 10.0890625 -26.75390625 10.0625 C-29.85897068 10.44105648 -31.08474211 11.41915962 -33.4453125 13.390625 C-34.1053125 13.390625 -34.7653125 13.390625 -35.4453125 13.390625 C-36.52056444 16.04291312 -37.53987401 18.67430954 -38.4453125 21.390625 C-45.0453125 21.390625 -51.6453125 21.390625 -58.4453125 21.390625 C-55.81673199 10.18457125 -52.84488153 4.27848635 -43.1015625 -2.09765625 C-29.57713344 -9.7946475 -12.8619745 -8.46506948 0 0 Z " fill="#3BB7FF" transform="translate(748.4453125,1092.609375)"/>
<path d="M0 0 C6.97085325 5.60754984 10.05580674 12.67238831 11.5546875 21.390625 C11.81979972 25.7364715 11.78795865 30.06933233 11.75 34.421875 C11.7471701 35.65353394 11.74434021 36.88519287 11.74142456 38.1541748 C11.73027952 42.06642602 11.70518499 45.97844362 11.6796875 49.890625 C11.66851716 52.55207998 11.66052583 55.21353277 11.65234375 57.875 C11.6303587 64.38029758 11.59586769 70.88542175 11.5546875 77.390625 C4.9546875 77.390625 -1.6453125 77.390625 -8.4453125 77.390625 C-8.9403125 72.935625 -8.9403125 72.935625 -9.4453125 68.390625 C-10.1259375 69.4734375 -10.1259375 69.4734375 -10.8203125 70.578125 C-15.75178048 75.8618407 -20.78966042 78.34192057 -28.04296875 78.80859375 C-29.71833425 78.85486373 -31.39433018 78.88203853 -33.0703125 78.890625 C-34.26926147 78.89993042 -34.26926147 78.89993042 -35.49243164 78.90942383 C-44.12342521 78.72692216 -50.46780485 76.2030684 -56.74609375 70.2578125 C-61.86598121 64.63182123 -61.99138304 58.89785453 -61.7890625 51.546875 C-61.1315062 45.50931264 -58.79971937 41.43097356 -54.5078125 37.203125 C-42.92743176 28.33202588 -22.75340639 24.390625 -8.4453125 24.390625 C-10.43225229 16.98270798 -10.43225229 16.98270798 -15.4453125 11.390625 C-18.47837363 10.37960462 -20.70471489 10.1923715 -23.8828125 10.140625 C-24.83027344 10.11484375 -25.77773438 10.0890625 -26.75390625 10.0625 C-29.85897068 10.44105648 -31.08474211 11.41915962 -33.4453125 13.390625 C-34.1053125 13.390625 -34.7653125 13.390625 -35.4453125 13.390625 C-36.52056444 16.04291312 -37.53987401 18.67430954 -38.4453125 21.390625 C-45.0453125 21.390625 -51.6453125 21.390625 -58.4453125 21.390625 C-55.81673199 10.18457125 -52.84488153 4.27848635 -43.1015625 -2.09765625 C-29.57713344 -9.7946475 -12.8619745 -8.46506948 0 0 Z " fill="#3BB7FF" transform="translate(573.4453125,1092.609375)"/>
<path d="M0 0 C7.19567594 4.67332072 11.03646903 11.62281896 12.87890625 19.8671875 C13.26631385 24.46780663 13.22930158 29.03821638 13.171875 33.65234375 C13.16763016 34.94917587 13.16338531 36.246008 13.15901184 37.58213806 C13.14765523 41.00005006 13.1182698 44.41756867 13.0848999 47.83532715 C13.05399858 51.33482546 13.04046402 54.83438844 13.02539062 58.33398438 C12.99338909 65.17856154 12.94069858 72.02281503 12.87890625 78.8671875 C6.27890625 78.8671875 -0.32109375 78.8671875 -7.12109375 78.8671875 C-7.61609375 74.9071875 -7.61609375 74.9071875 -8.12109375 70.8671875 C-8.54519531 71.26550781 -8.96929688 71.66382813 -9.40625 72.07421875 C-9.99277344 72.60402344 -10.57929687 73.13382813 -11.18359375 73.6796875 C-11.75207031 74.20175781 -12.32054687 74.72382812 -12.90625 75.26171875 C-18.97673745 79.66201917 -24.26162121 80.34651276 -31.55859375 80.2421875 C-32.76999023 80.25958984 -32.76999023 80.25958984 -34.00585938 80.27734375 C-42.5044888 80.23625449 -48.99873838 77.84716251 -55.12109375 71.8671875 C-59.93412198 65.06256139 -59.6366054 57.96666866 -59.12109375 49.8671875 C-58.13140809 44.39422578 -54.66993728 41.10129181 -50.64453125 37.54296875 C-43.33691668 32.6900792 -35.51816085 30.82587562 -26.99609375 29.1796875 C-25.95066406 28.96763672 -24.90523437 28.75558594 -23.828125 28.53710938 C-18.60763825 27.49103207 -13.40180243 26.54784542 -8.12109375 25.8671875 C-8.36670077 19.84582594 -8.36670077 19.84582594 -11.62109375 14.9296875 C-12.44609375 14.2490625 -13.27109375 13.5684375 -14.12109375 12.8671875 C-14.45109375 12.5371875 -14.78109375 12.2071875 -15.12109375 11.8671875 C-20.6170235 11.3458007 -25.53537666 11.15927809 -30.62109375 13.4296875 C-33.79446864 16.29996893 -33.79446864 16.29996893 -37.12109375 22.8671875 C-43.39109375 22.8671875 -49.66109375 22.8671875 -56.12109375 22.8671875 C-54.94487975 13.45747549 -51.80601344 7.11954253 -44.2734375 1.21875 C-30.40199613 -7.49181028 -14.36737295 -7.6731826 0 0 Z " fill="#3AB6FF" transform="translate(992.12109375,1091.1328125)"/>
<path d="M0 0 C7.9169539 -1.52211586 16.24706394 -2.73024864 24 0 C30.14507051 5.34877503 33.1834113 13.36208344 36.44433594 20.65869141 C38.90204213 25.937437 41.89939095 30.87620555 44.875 35.875 C45.87941003 37.59749151 46.87747367 39.32371002 47.8671875 41.0546875 C48.28081543 41.77124512 48.69444336 42.48780273 49.12060547 43.22607422 C50 45 50 45 50 47 C50.66 47 51.32 47 52 47 C52.26482178 46.29601074 52.52964355 45.59202148 52.80249023 44.86669922 C54.07373893 41.82347758 55.55890751 39.01593461 57.16015625 36.1328125 C57.7833374 35.00593018 58.40651855 33.87904785 59.04858398 32.71801758 C60.40231828 30.29286261 61.77234364 27.87768549 63.15258789 25.4675293 C63.84445644 24.25600694 64.53578568 23.04417642 65.2265625 21.83203125 C65.56511765 21.23857407 65.90367279 20.64511688 66.25248718 20.03367615 C68.11620934 16.72108718 69.74186867 13.41615123 71.1484375 9.88671875 C72.8914308 5.75652106 74.3681188 2.82787696 78 0 C85.88233121 -1.71761694 94.0530536 -0.91815058 102 0 C100.70693802 4.31325971 99.05415712 7.86896532 96.68359375 11.69140625 C96.0095752 12.78767334 95.33555664 13.88394043 94.64111328 15.01342773 C94.28212952 15.59148163 93.92314575 16.16953552 93.55328369 16.7651062 C91.63287108 19.85866076 89.73295454 22.96475724 87.83203125 26.0703125 C87.43723572 26.71445602 87.04244019 27.35859955 86.63568115 28.02226257 C82.20339286 35.27130446 77.90776851 42.59944245 73.625 49.9375 C73.26115204 50.56069122 72.89730408 51.18388245 72.52243042 51.82595825 C70.89063584 54.62134244 69.25982692 57.4172817 67.63134766 60.21459961 C66 63 66 63 64.31860352 65.23339844 C62.31239143 69.44269214 62.51971759 73.5053185 62.48828125 78.11328125 C62.47033005 79.08283249 62.45237885 80.05238373 62.43388367 81.05131531 C62.37983951 84.13833306 62.34590353 87.2251967 62.3125 90.3125 C62.27932176 92.40952662 62.24483163 94.50653293 62.20898438 96.60351562 C62.121654 101.73569855 62.06153438 106.86718386 62 112 C54.74 112 47.48 112 40 112 C40.18755859 107.61460938 40.18755859 107.61460938 40.37890625 103.140625 C41.05408996 79.70026488 40.24226823 63.15308829 25.78053284 44.15589905 C20.89589703 37.70598965 16.93335228 30.72074206 12.88348389 23.72915649 C10.89581651 20.30710837 8.87235052 16.90646008 6.8515625 13.50390625 C6.17255788 12.35627862 5.49367607 11.20857832 4.81494141 10.06079102 C3.65218294 8.09986784 2.46868189 6.1510088 1.25927734 4.21850586 C0 2 0 2 0 0 Z " fill="#3AB6FF" transform="translate(404,1058)"/>
<path d="M0 0 C6.6 0 13.2 0 20 0 C20.01458252 1.72557129 20.02916504 3.45114258 20.04418945 5.22900391 C20.09593776 10.94481006 20.16124958 16.66035473 20.23571491 22.37590981 C20.2803494 25.83961259 20.31962018 29.30319964 20.34643555 32.76708984 C20.37753763 36.75383392 20.43232449 40.74008676 20.48828125 44.7265625 C20.49467117 45.96427399 20.5010611 47.20198547 20.50764465 48.47720337 C20.57504441 56.72865277 20.57504441 56.72865277 24 64 C28.32928919 67.16933196 33.88899616 66.48147138 39 66 C43.2392002 64.48599993 45.75834156 62.92290227 48 59 C50.61144485 53.10455721 50.34926411 47.14993456 50.4140625 40.8203125 C50.43342865 39.6524118 50.4527948 38.48451111 50.4727478 37.28121948 C50.53237661 33.56255322 50.57886274 29.84385572 50.625 26.125 C50.66319509 23.59894507 50.70224771 21.07290295 50.7421875 18.546875 C50.83806468 12.36468776 50.92215784 6.18243956 51 0 C57.6 0 64.2 0 71 0 C71 27.06 71 54.12 71 82 C64.4 82 57.8 82 51 82 C50.505 78.04 50.505 78.04 50 74 C49.29037109 74.70576172 49.29037109 74.70576172 48.56640625 75.42578125 C42.30753314 81.31863839 36.69640402 84.03721033 28.0625 84.375 C19.64732268 84.04883034 12.85222412 81.90580765 6.69140625 76.03125 C1.36566819 69.63544447 -0.13064837 62.05797725 -0.11352539 53.92456055 C-0.11344986 52.72369308 -0.11337433 51.52282562 -0.11329651 50.28556824 C-0.10813522 48.99894791 -0.10297394 47.71232758 -0.09765625 46.38671875 C-0.09578956 45.04865064 -0.09436684 43.71058185 -0.09336853 42.37251282 C-0.08956314 38.8626413 -0.07974988 35.35281161 -0.06866455 31.84295654 C-0.05840777 28.25663824 -0.05386179 24.67031314 -0.04882812 21.08398438 C-0.03812572 14.05597074 -0.02054506 7.02799169 0 0 Z " fill="#3BB7FF" transform="translate(1022,1088)"/>
<path d="M0 0 C6.24389652 3.93134225 9.81951085 10.15066278 11.55418396 17.27653503 C12.04226226 20.25817776 12.11988627 23.05401983 12.11352539 26.07543945 C12.11341209 27.87674065 12.11341209 27.87674065 12.11329651 29.71443176 C12.10813522 31.00105209 12.10297394 32.28767242 12.09765625 33.61328125 C12.09578956 34.95134936 12.09436684 36.28941815 12.09336853 37.62748718 C12.08956314 41.1373587 12.07974988 44.64718839 12.06866455 48.15704346 C12.05840777 51.74336176 12.05386179 55.32968686 12.04882812 58.91601562 C12.03812572 65.94402926 12.02054506 72.97200831 12 80 C5.4 80 -1.2 80 -8 80 C-8.01458252 78.30472168 -8.02916504 76.60944336 -8.04418945 74.86279297 C-8.0959418 69.24676871 -8.16125465 63.63101044 -8.23571491 58.01524162 C-8.28034577 54.61207343 -8.3196173 51.20902293 -8.34643555 47.80566406 C-8.37754229 43.88841433 -8.43232892 39.97166424 -8.48828125 36.0546875 C-8.49467117 34.83884979 -8.5010611 33.62301208 -8.50764465 32.37033081 C-8.62598266 25.55055774 -8.79851168 20.25644949 -13.8203125 15.1484375 C-19.07686228 12.37885751 -25.98171865 13.42334819 -31.5 15 C-36.31245941 18.84996753 -37.9751092 24.07604447 -39 30 C-39.10869279 31.71708196 -39.17483685 33.43722211 -39.20532227 35.1574707 C-39.22526749 36.15813065 -39.24521271 37.15879059 -39.26576233 38.18977356 C-39.29083107 39.79159737 -39.29083107 39.79159737 -39.31640625 41.42578125 C-39.33718735 42.52850876 -39.35796844 43.63123627 -39.37937927 44.76737976 C-39.44464932 48.28235778 -39.50365495 51.79740912 -39.5625 55.3125 C-39.60570665 57.69857523 -39.64932163 60.08464309 -39.69335938 62.47070312 C-39.80030764 68.31372735 -39.90163857 74.15682517 -40 80 C-46.27 80 -52.54 80 -59 80 C-59 52.94 -59 25.88 -59 -2 C-52.73 -2 -46.46 -2 -40 -2 C-39.67 0.97 -39.34 3.94 -39 7 C-38.505 6.278125 -38.01 5.55625 -37.5 4.8125 C-27.5369704 -6.3959083 -12.8515753 -6.41520151 0 0 Z " fill="#3AB6FF" transform="translate(661,1090)"/>
<path d="M0 0 C0 6.27 0 12.54 0 19 C-2.475 19.12375 -2.475 19.12375 -5 19.25 C-10.33099199 19.76391311 -14.74715218 20.60543666 -19 24 C-22.9448482 28.87941324 -25.09185525 33.53309896 -25.20532227 39.83862305 C-25.22526749 40.8194133 -25.24521271 41.80020355 -25.26576233 42.81071472 C-25.29083107 44.39521172 -25.29083107 44.39521172 -25.31640625 46.01171875 C-25.33718735 47.09508011 -25.35796844 48.17844147 -25.37937927 49.29463196 C-25.44481797 52.75885616 -25.50373353 56.2231568 -25.5625 59.6875 C-25.60569061 62.03451315 -25.64930507 64.38151853 -25.69335938 66.72851562 C-25.80049361 72.48559854 -25.90177727 78.24275842 -26 84 C-32.6 84 -39.2 84 -46 84 C-46 56.94 -46 29.88 -46 2 C-39.4 2 -32.8 2 -26 2 C-25.67 4.31 -25.34 6.62 -25 9 C-24.41992188 8.51789063 -23.83984375 8.03578125 -23.2421875 7.5390625 C-15.29900204 1.11635478 -10.14158989 -0.27409702 0 0 Z " fill="#3BB7FF" transform="translate(1157,1086)"/>
<path d="M0 0 C-0.14824058 7.33117053 -0.66564719 13.57980703 -6 19 C-12.46915842 23.77901794 -19.07935536 25.17532146 -27 24 C-30.05843419 22.75165951 -31.36973678 21.80215319 -33.375 19.25 C-34.34245816 15.76715062 -33.97469149 13.47233843 -33 10 C-28.40976496 5.2517287 -24.33090442 3.92483395 -17.9375 2.75 C-16.75317383 2.51023437 -16.75317383 2.51023437 -15.54492188 2.265625 C-14.02766334 1.96039277 -12.50864989 1.66371852 -10.98779297 1.37695312 C-9.38412285 1.07284275 -7.78654267 0.73671858 -6.19140625 0.390625 C-4 0 -4 0 0 0 Z " fill="#F9FDFF" transform="translate(986,1132)"/>
<path d="M0 0 C0.51463919 7.07628883 -0.62161801 13.09018713 -5.390625 18.609375 C-11.09950623 23.71732137 -17.05533446 24.44858638 -24.43359375 24.328125 C-27.92602962 23.88160352 -29.69276784 22.61486311 -32 20 C-33.56935594 16.86128812 -33.35201103 14.46144178 -33 11 C-29.24874091 6.31092614 -25.40927615 4.15155431 -19.62890625 2.9296875 C-18.39624023 2.66865234 -18.39624023 2.66865234 -17.13867188 2.40234375 C-16.28853516 2.22832031 -15.43839844 2.05429688 -14.5625 1.875 C-13.71623047 1.69324219 -12.86996094 1.51148438 -11.99804688 1.32421875 C-7.94740578 0.48046735 -4.16290509 -0.25644179 0 0 Z " fill="#FAFDFF" transform="translate(740,1132)"/>
<path d="M0 0 C0.51463919 7.07628883 -0.62161801 13.09018713 -5.390625 18.609375 C-11.09950623 23.71732137 -17.05533446 24.44858638 -24.43359375 24.328125 C-27.92602962 23.88160352 -29.69276784 22.61486311 -32 20 C-33.56935594 16.86128812 -33.35201103 14.46144178 -33 11 C-29.24874091 6.31092614 -25.40927615 4.15155431 -19.62890625 2.9296875 C-18.39624023 2.66865234 -18.39624023 2.66865234 -17.13867188 2.40234375 C-16.28853516 2.22832031 -15.43839844 2.05429688 -14.5625 1.875 C-13.71623047 1.69324219 -12.86996094 1.51148438 -11.99804688 1.32421875 C-7.94740578 0.48046735 -4.16290509 -0.25644179 0 0 Z " fill="#FAFDFF" transform="translate(565,1132)"/>
</svg>
